<?xml version="1.0" encoding="UTF-8"?>
<svg xmlns="http://www.w3.org/2000/svg" viewBox="0 0 2677.78 1915.91">
  <defs>
    <style>
      .cls-1, .cls-2 {
        stroke: #fde4d8;
      }

      .cls-1, .cls-2, .cls-3, .cls-4, .cls-5, .cls-6 {
        stroke-miterlimit: 10;
        stroke-width: 10px;
      }

      .cls-1, .cls-2, .cls-4, .cls-5, .cls-6 {
        fill: none;
      }

      .cls-7 {
        fill: #fde4d8;
      }

      .cls-2, .cls-5 {
        stroke-linecap: round;
      }

      .cls-3 {
        fill: #1d1d1b;
      }

      .cls-3, .cls-6 {
        stroke: #1d1d1b;
      }

      .cls-8 {
        fill: #fde4d7;
      }

      .cls-9 {
        fill: #7fc7b5;
      }

      .cls-4, .cls-5 {
        stroke: #7fc7b5;
      }
    </style>
  </defs>
  <g id="Patas_y_patineta" data-name="Patas y patineta">
    <ellipse class="cls-4" cx="1760.03" cy="1337.3" rx="33.88" ry="47.65"/>
    <path class="cls-4" d="m1832.34,1263.83c16.18-4.12,28.23,9.17,33.83,24.09,6.21,16.56,6.33,37.52-.83,53.76-4.62,10.47-12.85,18.39-23.81,19.87"/>
    <ellipse class="cls-4" cx="1525.83" cy="1415.83" rx="31.54" ry="46.59"/>
    <path class="cls-4" d="m1602.65,1344.19c23.51,7.43,31.94,34.97,28.78,57.21-3.16,16.95-10.54,34.95-27.96,40.07"/>
    <line class="cls-4" x1="1525.83" y1="1462.42" x2="1604.59" y2="1441.55"/>
    <line class="cls-4" x1="1764.1" y1="1384.6" x2="1843.4" y2="1361.54"/>
    <ellipse class="cls-4" cx="874.86" cy="1623.85" rx="37.7" ry="45.57"/>
    <path class="cls-4" d="m938.02,1555.71c14.17-7.18,34.37-3.69,44.31,11.33,10.28,15.54,11.11,37.19,3.03,53.92-4.59,9.52-14.2,17.65-24.07,21.09"/>
    <ellipse class="cls-4" cx="1105.59" cy="1547.02" rx="37.7" ry="45.57"/>
    <path class="cls-4" d="m1164.15,1480.77c20.21-4.44,38.32,8.53,46.73,23.12s7.69,33.79-2.32,48.34c-5.69,8.28-14.54,14.51-24.99,17.35"/>
    <line class="cls-5" x1="887.32" y1="1666.87" x2="975.52" y2="1637.27"/>
    <line class="cls-4" x1="1105.59" y1="1592.6" x2="1190.4" y2="1567.73"/>
    <path class="cls-4" d="m998.78,1461.66c-16.66,5.48-30.62,10.09-41.44,13.68"/>
    <path class="cls-4" d="m1428.91,1324.38c-135.66,41.82-265.66,83.6-358.73,113.91"/>
    <path class="cls-4" d="m1668.53,1252.66c-52.64,15.18-107.33,31.42-162.07,48.01"/>
    <path class="cls-6" d="m1671.09,1251.92c-.85.25-1.71.49-2.56.74"/>
    <path class="cls-9" d="m834.73,1499.69l-168.58,76.09.34-8.95,78.71,42.99c352.28-115.29,760.46-236.55,1122.53-365.26,50.49-18.16,101.07-36.32,150.26-57.57,11.95-5.33,24.02-10.66,35-17.44,1.69-1.08,3.33-2.22,4.51-3.24.6-.49,1.06-1.01,1.09-1.06.07-.06-.07.07-.08.13-.73,1.43-.72,3.18-.04,4.76.87,1.82,1.55,2.17,2.24,2.58-2.24-.67-4.79-.72-7.58-.72-12.89-.16-26.09,1.45-38.88,3.25-23.9,3.48-48.45,8.3-72.2,13.34-28.28,6.08-56.93,12.77-85.03,19.54-34.83,8.43-69.61,17.19-104.41,25.92-2.68.67-5.4-.95-6.07-3.63-.65-2.6.87-5.24,3.42-6.01,50.74-15.3,104.52-30.44,155.93-43.04,38.39-9.38,76.95-18.16,116.23-23.44,7.98-.91,16.1-1.75,24.18-2.09,5.72.06,13.66-.56,19.63,1.5,6.76,2.15,10.64,9.16,6.76,15.98-6.03,10.72-36.35,23.01-48.19,28.51-149.55,61.87-304.2,110.14-457.63,161.17-272.17,88.32-548.36,173.69-822.6,255.98,0,0-2.01.61-2.01.61l-1.84-1.01c-2.35-1.25-86.94-47.5-87.53-47.8,0,0,9.15-4.13,9.15-4.13l168.58-76.09c6.35-2.53,9.9,6.32,4.11,9.11h0Z"/>
    <path class="cls-1" d="m1097.93,1366.2l-39.06,96.08s-29.29,48.81-62.24,0l-14-40.55"/>
    <path class="cls-1" d="m799.77,1332.78s34.16,201.83,49.21,219.81c21.03,25.14,43.8,24.57,64.68,0,10.73-12.63,44.69-80.8,68.99-130.85,14.92-30.75,26.2-54.67,26.2-54.67"/>
    <path class="cls-1" d="m1613.62,1197.34l70.47,68.06s58.58,42.31,66.31-26.85l-24.16-143.42"/>
    <path class="cls-2" d="m1351.75,1190.22l98.85,167.11c43.71,29.8,53.64-17.14,53.69-19.53v-164.75"/>
  </g>
  <g id="Delinieado">
    <path class="cls-8" d="m1503.69,1262.8c6.55-3.16,15.42-7.08,21.76-10.28,49.32-26.82,94.55-60.87,136.48-98.06,119.5-106.4,208.1-248.37,243.8-404.8,20.99-93.33,14.92-191.79-14.05-282.75-30.68-95.69-86.21-192.48-160.58-260.73-5.86-5.12-11.91-10.01-18.11-14.15-4.08-2.76-8.63-5.42-12.93-6.45-.41-.08-.65-.03-.35-.06.17,0,.89-.21,1.23-.43.08-.03.34-.21.26-.16,0,0-.64.43-.64.43-6.84,4.59-13.22,8.78-19.14,13.54-24.06,19.06-40.46,46.47-53.52,74-14.29,30.46-25.09,62.42-34.69,94.68-9.24,2.65-93.54,26.86-102.16,29.33-.9-1.37-6.09-9.67-7.09-11.04-1.48-2.1-3.25-4.37-4.89-6.37-32.74-37.92-80.6-62.84-126.15-82.36-13.37-5.54-27.74-10.93-41.39-15.71-22.4-7.63-45.17-14.43-68.22-20.29,0,0,12.32-4.12,12.32-4.12-.95,1.12-1.82,2.38-2.71,3.57-22.94,33.55-36.73,72.58-47.1,111.74-8.16,31.3-13.38,63.69-16.9,95.83-1.03,10.48-2.02,22.07-2.68,32.54-1.99,29-2.33,58.17-1.91,87.4.01.8-.62,1.45-1.42,1.46-.74.01-1.36-.54-1.45-1.25-7.47-58.38-8.72-117.72-1.65-176.36,6.51-51.89,19.2-103.77,44.09-150.18,3.85-6.94,7.95-13.93,12.82-20.28,0,0,4.59-5.9,4.59-5.9,0,0,7.73,1.78,7.73,1.78,32.71,7.49,65.36,16.77,96.82,28.75,54.71,20.93,114.17,52.28,152.06,98.06,3.32,4.23,6.35,8.25,9.03,13.02,0,0-13.83-5.91-13.83-5.91,0,0,88.08-23.64,88.08-23.64,0,0-7.73,7.51-7.73,7.51,12.53-38.92,26.94-77.66,47.79-113.09,18.24-31.14,38.56-52.89,69.79-71.18,10.23-6.98,23.03,1.58,31.43,6.97,13.96,9.61,25.86,20.96,37.54,32.91,138.15,147.86,206.82,367.41,150.12,564.86-49.49,179.74-167.93,337.21-321.2,442.06-20.89,14.12-42.22,27.73-64.82,38.99,0,0-2.75,1.25-2.75,1.25,0,0-5.5,2.49-5.5,2.49,0,0-11,4.99-11,4.99-.72.33-1.58,0-1.91-.72-.33-.72-.01-1.56.7-1.9h0Z"/>
    <path class="cls-8" d="m584.85,845.94c19.21-3.9,34.96-18.77,42.25-36.71,4.23-10.57,7.63-23.42,5.77-34.33-2.51-15.94-17.97-23.71-32.78-26.44-8.08-1.57-16.57-2.1-24.81-1.66-.16.01-.19.01-.18,0,0,0-.37.06-.37.06,0,0-1.5.25-1.5.25-23.15,3.54-46.19,11.58-64.92,25.74-57.79,43.83-61.74,128.01-49.84,193.98,9.31,36.44,24.6,71.24,42.07,104.48,67.99,128.49,182.5,223.47,322.53,263.53,20.03,5.93,40.8,10.57,61.34,14.48,112.06,19.47,227.29,20.44,339.73,3.29,66.67-10.17,132.39-26.66,195.84-49.53.79-.29,1.67.12,1.96.92.29.79-.12,1.67-.91,1.96-47.67,17.4-96.65,31.23-146.36,41.44-128.43,26.51-261.88,29.07-391.21,7.15-20.77-3.9-41.68-8.44-61.95-14.35-133.01-37.48-244.6-124.41-314.87-243.24-23.26-39.31-42.76-81.18-55.07-125.27-8.13-38.78-9.18-79.31-1-118.21,13.8-64.22,56.16-105.54,121.45-115.39,0,0,1.63-.27,1.63-.27l.41-.07.61-.05s.86-.05.86-.05c25.74-1.32,61.38,5.53,66.72,35.54,2.97,15.77-3.79,38.33-12.34,51.75-8.4,13.45-21.5,24.12-36.64,29.11-2.28.77-4.57,1.38-6.97,1.79-6.58.84-8.07-8.78-1.41-9.9h0Z"/>
    <path class="cls-8" d="m576.53,1187.55c-24.9-32.63-37.21-73.92-37.83-114.81-1.01-62.34,27.01-121.56,65.2-169.48,38.11-47.95,86.02-87.19,136.41-121.53,71.3-48.11,148.96-86.41,228.1-119.8,40.93-16.98,85.4-33.81,127.4-48.2,28.57-9.92,57.45-18.96,86.35-27.86,1.29-.4,2.67.32,3.07,1.61.39,1.26-.28,2.6-1.51,3.04-56.36,20.03-113.93,41.45-169.08,64.56-99.1,41.59-196.78,89.19-284.52,151.62-10.46,7.56-22.63,16.81-32.76,24.86-4.17,3.42-10.21,8.47-14.38,11.9-8.81,7.57-19.22,16.92-27.71,24.95-71.87,68.85-127.21,160.55-100.26,263.01,5.18,19.05,12.8,37.88,23.76,54.35.49.65.34,1.59-.33,2.04-.61.42-1.44.29-1.91-.28h0Z"/>
  </g>
  <g id="Lentes">
    <path class="cls-3" d="m1907.01,496.17s78.71,206.45-45.76,224.75-133.63-133.63-133.63-133.63l-131.8,31.12s64.07,166.58-71.39,186.71c-135.46,20.14-159.25-199.53-159.25-199.53,0,0,234.31-92.55,541.83-109.43"/>
    <path class="cls-3" d="m1370.92,643.09l-137.48,65.02-10.98,29.29s-21.97,23.8-32.95-10.07c-10.98-33.86,5.19-37.53,5.19-37.53,7.63,0,169.63-84.2,169.63-84.2"/>
    <path class="cls-7" d="m1674.31,655.49c.52-.47,1.2-.85,1.8-1.13,3.35-1.51,6.93-2.26,10.5-2.89,20.28-3.21,41.71-.19,59.79,10.1,39.54,22.49,42.65,72.13,28.12,110.74-.65,1.64-3.13,1.2-3.07-.62.01,0,.54-11.65.55-11.66.11-2.89.2-8.61.2-11.49.15-39.85-12.13-71.76-52.21-84.8-6.95-2.33-14.25-3.94-21.69-4.94-7.05-.83-14.36-1.65-21.42-.59,0,0-.2.04-.2.04-.02,0-.05,0-.08-.02,0,0-1.82-.55-1.82-.55-.94-.25-1.22-1.58-.46-2.18h0Z"/>
    <ellipse class="cls-1" cx="1751.82" cy="744.72" rx="2.24" ry="13.02"/>
    <ellipse class="cls-1" cx="1701.79" cy="760.59" rx="1.83" ry="13.42"/>
  </g>
</svg>