<?xml version="1.0" encoding="UTF-8"?>
<svg xmlns="http://www.w3.org/2000/svg" viewBox="0 0 2677.78 1915.91">
  <defs>
    <style>
      .cls-1 {
        letter-spacing: -.02em;
      }

      .cls-2 {
        fill: #f7d665;
        font-family: Outfit-ExtraBold, Outfit;
        font-size: 527.92px;
      }

      .cls-2, .cls-3 {
        font-weight: 700;
      }

      .cls-4 {
        stroke-width: 8px;
      }

      .cls-4, .cls-5, .cls-6, .cls-7, .cls-8, .cls-9, .cls-10 {
        stroke-miterlimit: 10;
      }

      .cls-4, .cls-6, .cls-7, .cls-8, .cls-9, .cls-10 {
        fill: none;
      }

      .cls-4, .cls-7, .cls-9 {
        stroke-linecap: round;
      }

      .cls-4, .cls-9, .cls-10 {
        stroke: #e8c0c9;
      }

      .cls-3 {
        font-family: Outfit-Bold, Outfit;
        font-size: 309.63px;
      }

      .cls-3, .cls-11 {
        fill: #7fc7b5;
      }

      .cls-5 {
        fill: #1d1d1b;
      }

      .cls-5, .cls-6, .cls-7, .cls-8, .cls-9, .cls-10 {
        stroke-width: 10px;
      }

      .cls-5, .cls-8 {
        stroke: #1d1d1b;
      }

      .cls-6, .cls-7 {
        stroke: #7fc7b5;
      }

      .cls-12 {
        fill: #e8c0c9;
      }
    </style>
  </defs>
  <g id="Patas_y_patineta" data-name="Patas y patineta">
    <ellipse class="cls-6" cx="1760.03" cy="1337.3" rx="33.88" ry="47.65"/>
    <path class="cls-6" d="m1832.34,1263.83c16.18-4.12,28.23,9.17,33.83,24.09,6.21,16.56,6.33,37.52-.83,53.76-4.62,10.47-12.85,18.39-23.81,19.87"/>
    <ellipse class="cls-6" cx="1525.83" cy="1415.83" rx="31.54" ry="46.59"/>
    <path class="cls-6" d="m1602.65,1344.19c23.51,7.43,31.94,34.97,28.78,57.21-3.16,16.95-10.54,34.95-27.96,40.07"/>
    <line class="cls-6" x1="1525.83" y1="1462.42" x2="1604.59" y2="1441.55"/>
    <line class="cls-6" x1="1764.1" y1="1384.6" x2="1843.4" y2="1361.54"/>
    <ellipse class="cls-6" cx="874.86" cy="1623.85" rx="37.7" ry="45.57"/>
    <path class="cls-6" d="m938.02,1555.71c14.17-7.18,34.37-3.69,44.31,11.33,10.28,15.54,11.11,37.19,3.03,53.92-4.59,9.52-14.2,17.65-24.07,21.09"/>
    <ellipse class="cls-6" cx="1105.59" cy="1547.02" rx="37.7" ry="45.57"/>
    <path class="cls-6" d="m1164.15,1480.77c20.21-4.44,38.32,8.53,46.73,23.12s7.69,33.79-2.32,48.34c-5.69,8.28-14.54,14.51-24.99,17.35"/>
    <line class="cls-7" x1="887.32" y1="1666.87" x2="975.52" y2="1637.27"/>
    <line class="cls-6" x1="1105.59" y1="1592.6" x2="1190.4" y2="1567.73"/>
    <path class="cls-6" d="m998.78,1461.66c-16.66,5.48-30.62,10.09-41.44,13.68"/>
    <path class="cls-6" d="m1428.91,1324.38c-135.66,41.82-265.66,83.6-358.73,113.91"/>
    <path class="cls-6" d="m1668.53,1252.66c-52.64,15.18-107.33,31.42-162.07,48.01"/>
    <path class="cls-8" d="m1671.09,1251.92c-.85.25-1.71.49-2.56.74"/>
    <path class="cls-11" d="m834.73,1499.69s-168.58,76.09-168.58,76.09c0,0,.34-8.95.34-8.95,0,0,78.71,42.99,78.71,42.99,352.28-115.29,760.46-236.55,1122.53-365.26,50.49-18.16,101.07-36.32,150.26-57.57,11.95-5.33,24.02-10.66,35-17.44,1.69-1.08,3.33-2.22,4.51-3.24.6-.49,1.06-1.01,1.09-1.06.07-.06-.07.07-.08.13-.73,1.43-.72,3.18-.04,4.76.87,1.82,1.55,2.17,2.24,2.58-2.24-.67-4.79-.72-7.58-.72-12.89-.16-26.09,1.45-38.88,3.25-23.9,3.48-48.45,8.3-72.2,13.34-28.28,6.08-56.93,12.77-85.03,19.54-34.83,8.43-69.61,17.19-104.41,25.92-2.68.67-5.4-.95-6.07-3.63-.65-2.6.87-5.24,3.42-6.01,50.74-15.3,104.52-30.44,155.93-43.04,38.39-9.38,76.95-18.16,116.23-23.44,7.98-.91,16.1-1.75,24.18-2.09,5.72.06,13.66-.56,19.63,1.5,6.76,2.15,10.64,9.16,6.76,15.98-6.03,10.72-36.35,23.01-48.19,28.51-149.55,61.87-304.2,110.14-457.63,161.17-272.17,88.32-548.36,173.69-822.6,255.98,0,0-2.01.61-2.01.61,0,0-1.84-1.01-1.84-1.01-2.35-1.25-86.94-47.5-87.53-47.8,0,0,9.15-4.13,9.15-4.13,0,0,168.58-76.09,168.58-76.09,6.35-2.53,9.9,6.32,4.11,9.11h0Z"/>
    <path class="cls-10" d="m1097.93,1366.2l-39.06,96.08s-29.29,48.81-62.24,0l-14-40.55"/>
    <path class="cls-10" d="m799.77,1332.78s34.16,201.83,49.21,219.81c21.03,25.14,43.8,24.57,64.68,0,10.73-12.63,44.69-80.8,68.99-130.85,14.92-30.75,26.2-54.67,26.2-54.67"/>
    <path class="cls-10" d="m1613.62,1197.34l70.47,68.06s58.58,42.31,66.31-26.85l-24.16-143.42"/>
    <path class="cls-9" d="m1351.75,1190.22l98.85,167.11c43.71,29.8,53.64-17.14,53.69-19.53v-164.75"/>
  </g>
  <g id="Letras_" data-name="Letras?">
    <text class="cls-3" transform="translate(364.54 605.6) rotate(24.49) scale(.96 1)"><tspan class="cls-1" x="0" y="0">P</tspan><tspan x="188.26" y="0" xml:space="preserve">a       nde</tspan></text>
    <text class="cls-2" transform="translate(664.09 806.43) rotate(26.51) scale(.86 1)"><tspan x="0" y="0">O</tspan></text>
    <text/>
  </g>
  <g id="Delinieado">
    <path class="cls-12" d="m1181.48,588.32c-7.14-87.5-3.87-177.47,22.62-261.74,6.8-21.11,15.11-41.88,25.85-61.38,4.22-7.54,8.72-14.97,14.22-21.7,48.44,11.1,96.16,25.78,141.39,46.72,41.06,19.28,90.02,48.63,116.22,86.55.49.76.88,1.35,1.48,2.43l-9-3.85,87.65-25.19-5.95,5.78,7.33-23.24c3.01-8.96,6.79-19.96,10.15-28.81,1.64-4.25,5.06-12.93,6.69-17.13,0,0,4.92-11.28,4.92-11.28,2.79-6.8,7.36-15.72,10.56-22.32,1.94-3.66,3.98-7.27,5.97-10.91,2.84-5.41,6.56-10.8,9.73-16.04,1.68-2.34,5.54-7.92,7.27-10.32,2.76-3.68,5.22-6.49,7.93-9.95,3.95-4.44,8.93-9.81,13.36-13.89,6.19-5.76,13.15-11.09,20.1-15.88,0,0,10.13-6.74,10.13-6.74l.62-.41c5.05-3.36,11.93-3,17.15-1.07,5.76,1.96,10.87,4.99,15.8,8.23,14.26,9.56,26.32,20.87,38.24,32.82,79.37,82.87,134.97,188.19,161.1,299.78,18.57,80.22,19.32,164.68.55,244.95-9.37,39.53-22.97,78.99-38.6,116.43-67.19,157.03-187.85,290.47-336.21,374.58-7.07,3.94-14.2,7.73-21.55,11.22-7.76,3.56-14.81,6.24-22.31,9.48-.73.31-1.58-.04-1.89-.77-.29-.7.01-1.51.68-1.84l10.77-5.43,5.39-2.7c8.97-4.42,17.34-9.83,25.84-15.11,26.98-17.22,52.82-36.21,77.44-56.64,81.45-67.1,150.64-149.18,201.34-241.58,25.45-47,46.52-96.43,61.68-147.68,13.86-44.94,22.64-91.93,24.44-138.92,6.41-157.39-57.51-315.65-164.28-430.55-10.61-10.95-22.14-21.83-34.48-30.42-3.4-2.33-7.01-4.56-10.72-5.96-.3-.12-.53-.16-.79-.26-.2-.04-.44-.12-.57-.14-.3-.08-.31,0,.22-.08.61-.07,1.29-.36,1.86-.65.12-.06.41-.26.37-.25l-.64.41c-10.34,6.54-19.28,12.34-28,20.21-3.96,3.55-8.25,8.03-11.9,12.01-3.43,4.13-7.57,9.04-10.61,13.47,0,0-3.38,4.66-3.38,4.66l-3.14,4.88c-4.31,6.45-8.08,13.29-11.91,20.05-2.08,4.11-6.12,11.82-7.99,15.74-1.43,3.11-5.86,12.82-7.38,16.13-1.63,4-5.23,12.69-6.78,16.47-6.7,16.56-13.85,38.1-19.52,55.16-6.15,1.64-93.01,24.95-98.61,26.45,0,0-2.88-5.49-2.88-5.49-.72-1.33-2.2-3.51-3.11-4.82-19.59-26.46-47-46.05-75.01-62.96-51.55-30.16-108.57-49.89-166.36-64.53,0,0,5.2-1.74,5.2-1.74-17.12,22.99-28.42,49.79-37.93,76.73-15.25,44.63-23.3,91.7-27.21,138.63-3.08,39.97-3.2,80.17-.69,120.21.05.79-.56,1.48-1.35,1.53-.78.05-1.46-.54-1.52-1.32h0Z"/>
    <path class="cls-12" d="m584.85,845.94c19.21-3.9,34.96-18.77,42.25-36.71,4.23-10.57,7.63-23.42,5.77-34.33-2.51-15.94-17.97-23.71-32.78-26.44-8.08-1.57-16.57-2.1-24.81-1.66-.16.01-.19.01-.18,0l-.37.06-1.5.25c-23.15,3.54-46.19,11.58-64.92,25.74-57.79,43.83-61.74,128.01-49.84,193.98,9.31,36.44,24.6,71.24,42.07,104.48,67.99,128.49,182.5,223.47,322.53,263.53,20.03,5.93,40.8,10.57,61.34,14.48,112.06,19.47,227.29,20.44,339.73,3.29,66.67-10.17,132.39-26.66,195.84-49.53.79-.29,1.67.12,1.96.92.29.79-.12,1.67-.91,1.96-47.67,17.4-96.65,31.23-146.36,41.44-128.43,26.51-261.88,29.07-391.21,7.15-20.77-3.9-41.68-8.44-61.95-14.35-133.01-37.48-244.6-124.41-314.87-243.24-23.26-39.31-42.76-81.18-55.07-125.27-8.13-38.78-9.18-79.31-1-118.21,13.8-64.22,56.16-105.54,121.45-115.39,0,0,1.63-.27,1.63-.27l.41-.07.61-.05.86-.05c25.74-1.32,61.38,5.53,66.72,35.54,2.97,15.77-3.79,38.33-12.34,51.75-8.4,13.45-21.5,24.12-36.64,29.11-2.28.77-4.57,1.38-6.97,1.79-6.58.84-8.07-8.78-1.41-9.9h0Z"/>
  </g>
  <g id="Lentes">
    <path class="cls-5" d="m1907.01,496.17s78.71,206.45-45.76,224.75-133.63-133.63-133.63-133.63l-131.8,31.12s64.07,166.58-71.39,186.71c-135.46,20.14-159.25-199.53-159.25-199.53,0,0,234.31-92.55,541.83-109.43"/>
    <path class="cls-5" d="m1370.92,643.09l-137.48,65.02-10.98,29.29s-21.97,23.8-32.95-10.07c-10.98-33.86,5.19-37.53,5.19-37.53,7.63,0,169.63-84.2,169.63-84.2"/>
    <path class="cls-4" d="m1675.45,656.86c5.93-4.93,124.77-14.93,97.53,115.13"/>
    <ellipse class="cls-10" cx="1751.82" cy="744.72" rx="2.24" ry="13.02"/>
    <ellipse class="cls-10" cx="1701.79" cy="760.59" rx="1.83" ry="13.42"/>
  </g>
</svg>