<?xml version="1.0" encoding="UTF-8"?>
<svg xmlns="http://www.w3.org/2000/svg" viewBox="0 0 2677.78 1915.91">
  <g id="Patas_y_patineta" data-name="Patas y patineta">
    <ellipse cx="718.85" cy="1337.3" rx="48.01" ry="33.63" transform="translate(-722.03 1815.83) rotate(-80.11)" fill="none" stroke="#7fc7b5" stroke-miterlimit="10" stroke-width="10"/>
    <path d="m652.96,1263.83c-15.82-4.12-29.03,9.17-35.94,24.09-7.66,16.56-9.62,37.52-3.88,53.76,3.7,10.47,11.24,18.39,22.07,19.87" fill="none" stroke="#7fc7b5" stroke-miterlimit="10" stroke-width="10"/>
    <ellipse cx="946.18" cy="1415.83" rx="46.91" ry="31.32" transform="translate(-601.09 2127.02) rotate(-80.93)" fill="none" stroke="#7fc7b5" stroke-miterlimit="10" stroke-width="10"/>
    <path d="m875.62,1344.19c-24.16,7.43-35,34.97-33.78,57.21,1.68,16.95,7.48,34.95,24.46,40.07" fill="none" stroke="#7fc7b5" stroke-miterlimit="10" stroke-width="10"/>
    <line x1="942.1" y1="1462.42" x2="865.16" y2="1441.55" fill="none" stroke="#7fc7b5" stroke-miterlimit="10" stroke-width="10"/>
    <line x1="710.63" y1="1384.6" x2="633.35" y2="1361.54" fill="none" stroke="#7fc7b5" stroke-miterlimit="10" stroke-width="10"/>
    <ellipse cx="1578.95" cy="1623.85" rx="46.1" ry="37.27" transform="translate(-394.22 2735.86) rotate(-75.21)" fill="none" stroke="#7fc7b5" stroke-miterlimit="10" stroke-width="10"/>
    <path d="m1521.75,1555.71c-13.54-7.18-34.05-3.69-45.3,11.33-11.64,15.54-14.36,37.19-7.75,53.92,3.76,9.52,12.66,17.65,22.22,21.09" fill="none" stroke="#7fc7b5" stroke-miterlimit="10" stroke-width="10"/>
    <ellipse cx="1354.94" cy="1547.02" rx="46.1" ry="37.27" transform="translate(-486.75 2462.07) rotate(-75.21)" fill="none" stroke="#7fc7b5" stroke-miterlimit="10" stroke-width="10"/>
    <path d="m1302.17,1480.77c-19.82-4.44-39.07,8.53-48.75,23.12s-10.65,33.79-1.91,48.34c4.97,8.28,13.27,14.51,23.47,17.35" fill="none" stroke="#7fc7b5" stroke-miterlimit="10" stroke-width="10"/>
    <line x1="1562.73" y1="1666.87" x2="1477.11" y2="1637.27" fill="none" stroke="#7fc7b5" stroke-linecap="round" stroke-miterlimit="10" stroke-width="10"/>
    <line x1="1350.95" y1="1592.6" x2="1268.32" y2="1567.73" fill="none" stroke="#7fc7b5" stroke-miterlimit="10" stroke-width="10"/>
    <path d="m1469.21,1461.66c16.18,5.48,29.74,10.09,40.24,13.68" fill="none" stroke="#7fc7b5" stroke-miterlimit="10" stroke-width="10"/>
    <path d="m1051.1,1324.38c132,41.82,258.34,83.6,348.77,113.91" fill="none" stroke="#7fc7b5" stroke-miterlimit="10" stroke-width="10"/>
    <path d="m817.75,1252.66c51.31,15.18,104.58,31.42,157.86,48.01" fill="none" stroke="#7fc7b5" stroke-miterlimit="10" stroke-width="10"/>
    <path d="m815.25,1251.92c.83.25,1.66.49,2.5.74" fill="none" stroke="#1d1d1b" stroke-miterlimit="10" stroke-width="10"/>
    <path d="m1634.52,1490.61s161.93,76.09,161.93,76.09c0,0,9.14,4.29,9.14,4.29-3.81,2.33-87.36,45.28-93.26,48.61-334.78-103.63-670.48-209.72-1001.38-324.84-82.65-29.54-165.66-58.17-246.01-93.81-8.06-3.71-16.08-7.54-24.06-11.92-4-2.22-7.97-4.51-12.04-7.46-3.21-2.46-6.43-4.92-8.34-9.04-.58-1.34-1.25-3.33-.91-5.98.16-1.28.63-2.62,1.24-3.69,1.22-2.25,3.8-4.19,5.64-4.92,5.5-2.23,10.78-2.13,16.29-2.21,13.59.11,27.09,1.82,40.38,3.79,60.68,9.68,120.52,25.97,179.67,42.41,24.64,7.08,51.33,14.87,75.61,22.49,2.64.82,4.11,3.62,3.29,6.26-.79,2.55-3.46,4.01-6.02,3.36-33.9-8.71-67.77-17.44-101.7-25.85-50.71-12.34-101.67-24.86-153.23-32.78-8.53-1.25-17.06-2.32-25.5-2.95-7.3-.41-14.71-1.1-21.77.19-.23.06-.39.13-.37.12.02-.02.26-.08.83-.6.3-.27.65-.68,1.01-1.3.35-.6.62-1.41.72-2.15.18-1.55-.2-2.44-.34-2.79-.16-.35-.2-.35-.13-.27,3.75,3.81,8.57,6.31,13.5,9.15,54.08,27.72,111.97,47.78,168.81,69.34,351.54,128.95,749.92,250.63,1092.02,365.61,0,0,82.47-42.98,82.47-42.98,0,0,.18,8.96.18,8.96,0,0-161.93-76.09-161.93-76.09-6.04-3.15-1.64-11.65,4.25-9.05h0Z" fill="#7fc7b5"/>
    <path d="m1378.41,1366.2l30.66,96.08s25.02,48.81,62.24,0l17.54-40.55" fill="none" stroke="#fde4d8" stroke-miterlimit="10" stroke-width="10"/>
    <path d="m1679.5,1332.78s-51.82,201.83-68.44,219.81c-23.23,25.14-45.95,24.57-64.68,0-9.63-12.63-37.62-80.8-57.54-130.85-12.23-30.75-21.42-54.67-21.42-54.67" fill="none" stroke="#fde4d8" stroke-miterlimit="10" stroke-width="10"/>
    <path d="m877.5,1197.34l-76.42,68.06s-62.28,42.31-63.96-26.85l36.71-143.42" fill="none" stroke="#fde4d8" stroke-miterlimit="10" stroke-width="10"/>
    <path d="m1139.99,1190.22l-113.47,167.11c-46.32,29.8-52.14-17.14-51.99-19.53l14.41-164.75" fill="none" stroke="#fde4d8" stroke-linecap="round" stroke-miterlimit="10" stroke-width="10"/>
  </g>
  <g id="Delinieado">
    <path d="m980.36,1265.41c-3.89-1.96-12.51-5.83-16.21-7.67-23.25-11.64-44.75-26.48-65.79-41.66-138.88-101.64-240.68-253.82-276.61-422.59-41.95-178.64,20.34-366.94,130.02-509.38,29.76-38.13,62.19-75.4,101.83-103.85,8.57-5.57,22.96-15.63,33.62-10.58.86.43,2.12,1.28,2.94,1.85,5.09,3.44,10.21,6.74,15.13,10.49,51.3,38.86,71.34,114.37,85.92,174.05,0,0-7.86-8.34-7.86-8.34,0,0,85.94,23.66,85.94,23.66,0,0-13.42,5.17-13.42,5.17.78-1.23,1.2-1.8,1.77-2.62,15.27-20.52,35.59-37,56.33-51.51,42.08-29.04,89.42-49.65,137.89-65.35,26.74-8.68,53.96-15.47,81.31-21.51,1.47,2.14,5.14,7.21,6.44,9.37,41.68,72.49,45.36,175.99,37.14,257.46-3.01,28.98-7.61,57.7-13.83,86.03-.17.78-.94,1.27-1.72,1.1-.72-.16-1.2-.84-1.13-1.55,8.58-85.07,10.33-172.66-11-255.89-7.09-26.17-15.85-52.15-30.54-74.95,0,0-.29-.41-.29-.41,0,0-.14-.2-.14-.2,0,0-.05-.06-.05-.06,0,0,12.63,4.65,12.63,4.65-47.54,11.94-94.27,27.1-138.92,47.27-39.2,18.27-78.11,40-108.03,71.61-2.62,2.89-5.31,6.01-7.56,9.2,0,0-5.43,7.53-5.43,7.53,0,0-8-2.35-8-2.35,0,0-85.52-25.15-85.52-25.15l-6.48-1.91c-10.3-47.31-21.97-96.08-47.21-137.71-9.85-16.14-22.77-29.7-38.38-40.38,0,0-4.87-3.46-4.87-3.46,0,0-1.24-.89-1.24-.89-.17-.12-.2-.13.04.02.15.09.3.17.42.24l.38.17s.32.11.32.11c.38.11.57.11.62.11-2.22.26-5.84,1.79-8.24,3.12-9.89,5.33-18.97,12.33-27.79,19.58-53.77,45.88-97.64,103-134.01,163.47-74.89,124.58-111.31,276.11-79.15,419.68,8.84,42.54,21.58,84.45,38.16,124.62,45.34,109.99,119.81,207.36,212.24,282.13,18.52,14.97,37.79,29.05,57.85,41.88,8.38,5.27,16.77,10.59,25.66,14.93,0,0,5.36,2.62,5.36,2.62,0,0,10.72,5.24,10.72,5.24.71.35,1.01,1.21.66,1.93-.35.71-1.2,1.01-1.91.67h0Z" fill="#fde4d7"/>
    <path d="m1935.16,855.84c-9.24-1.75-17.87-6.07-25.21-11.88-14.61-11.41-22.5-29.29-24.81-47.29-6.98-45.24,30.51-60.4,69.14-59.09,0,0,1.7.09,1.7.09.27.01.82.05,1.04.09,0,0,.82.14.82.14,0,0,6.56,1.12,6.56,1.12,42.8,7.88,78.51,31.89,95.3,73.08,13.4,32.25,14.72,68.23,11.14,102.5-2.94,25.67-7.89,51.41-18.42,75.17-68.6,161.39-207.42,292.95-375.83,344.68-52.96,16.93-108.08,25.43-163.3,30.5-84.91,7.6-170.72,5.32-255-7.61-67.38-10.35-133.78-27.36-197.58-51.39-.79-.3-1.19-1.18-.89-1.97.3-.79,1.18-1.19,1.97-.89,95.54,35.54,196.69,55.32,298.43,60.42,50.88,2.49,101.91,1.24,152.62-3.48,59.03-5.59,117.99-15.43,174.1-34.93,164.88-55.49,299.51-188.77,362.93-350.05,7.14-19.62,10.53-40.58,12.93-61.29,4.03-40.81,1.23-85.27-22.82-119.84-17.65-25.68-47.03-40.55-77.26-45.95,0,0-6.02-1.01-6.02-1.01-.37-.06-.94-.17-1.3-.17-21.06-.8-51.01,3.29-59.31,25.69-3.98,11.12-1.85,23.52,1.08,34.67,5.16,18.65,19.72,34.54,38.9,38.7,7.03.74,6.12,10.68-.91,9.99h0Z" fill="#fde4d7"/>
    <path d="m1913.33,1185.73c22.82-31.09,36.33-69.09,39.97-107.31,2.21-25-.2-50.43-6.65-74.65-15.45-57.18-51.65-106.28-93.45-147.35-3.86-3.63-9.31-8.91-13.13-12.52-9.48-8.57-20.42-18.1-30.29-26.1-28.19-22.7-58.79-43.66-89.55-62.74-62.29-38.25-128.52-70.79-195.54-99.84-39.88-17.31-81.97-34.02-122.62-49.37-11.42-4.33-30.26-11.17-41.36-15.32-1.29-.45-1.96-1.88-1.49-3.16.46-1.24,1.81-1.88,3.05-1.48,18.69,6.02,37.48,11.79,56.03,18.27,36.53,12.3,74.82,26.5,110.59,41.04,43.13,17.36,86.27,36.95,127.69,58.08,50.25,25.97,99.68,55.26,144.85,89.39,43.52,33.03,84.06,70.8,115.09,116.1,46.89,68.74,64.13,150.02,30.22,228.31-5.95,13.69-13.22,26.77-21.94,38.87-2.91,4.03-5.92,7.93-9.32,11.66-.53.58-1.43.62-2.01.09-.57-.52-.62-1.39-.13-1.97h0Z" fill="#fde4d7"/>
  </g>
  <g id="Lentes">
    <path d="m645.46,496.17s-96.77,206.45,26.1,224.75c122.87,18.31,145.32-133.63,145.32-133.63l129.07,31.12s-78.64,166.58,55.05,186.71c133.7,20.14,176.71-199.53,176.71-199.53,0,0-226.21-92.55-532.26-109.43" fill="#1d1d1b" stroke="#1d1d1b" stroke-miterlimit="10" stroke-width="10"/>
    <path d="m1168.69,643.09l131.79,65.02,8.42,29.29s19.88,23.8,33.83-10.07c13.95-33.86-1.9-37.53-1.9-37.53-7.63,0-162.26-84.2-162.26-84.2" fill="#1d1d1b" stroke="#1d1d1b" stroke-miterlimit="10" stroke-width="10"/>
    <path d="m861.77,658.18c-7.22-1.03-14.77-.26-22.01.64-21.78,2.95-44.21,11.69-58.72,28.08-20.58,23.11-23.32,54.71-24.13,84.88-.02.87-.75,1.57-1.62,1.54-.71-.02-1.31-.51-1.49-1.16-.54-1.94-.98-3.9-1.48-5.87-1.17-5.83-2.3-12.12-2.7-18.03-3.05-34.54,9.64-69.44,41.31-86.62,20.25-10.96,44.45-14.21,66.76-8.95,1.24.35,7.54,2.13,6.5,3.63-.02.03-.05.05-.08.07l-2.34,1.76h0Z" fill="#fde4d8"/>
    <ellipse cx="778.9" cy="744.72" rx="13.07" ry="2.23" transform="translate(-32.74 1453.63) rotate(-84.85)" fill="none" stroke="#fde4d8" stroke-miterlimit="10" stroke-width="10"/>
    <ellipse cx="827.54" cy="760.59" rx="13.48" ry="1.82" transform="translate(-3.51 1517.34) rotate(-84.91)" fill="none" stroke="#fde4d8" stroke-miterlimit="10" stroke-width="10"/>
  </g>
</svg>